<svg width="60" height="60" viewBox="0 0 60 60" fill="none" xmlns="http://www.w3.org/2000/svg">
<rect width="60" height="60" fill="#551574"/>
<path d="M14.7867 18.6666L14.2313 15.3333H12.238C11.9407 14.1866 10.906 13.3333 9.66667 13.3333C8.196 13.3333 7 14.5293 7 16C7 17.4706 8.196 18.6666 9.66667 18.6666C10.906 18.6666 11.9407 17.8133 12.2387 16.6666H13.1013L13.4347 18.6666H13.4093L16.8567 36.0106C15.2133 36.136 13.8447 37.4013 13.6833 38.9933C13.5887 39.93 13.8967 40.868 14.5287 41.5653C15.1613 42.2646 16.0627 42.6666 17 42.6666H18.3333C18.3333 44.8726 20.1273 46.6666 22.3333 46.6666C24.5393 46.6666 26.3333 44.8726 26.3333 42.6666H33.6667C33.6667 44.8726 35.4607 46.6666 37.6667 46.6666C39.8727 46.6666 41.6667 44.8726 41.6667 42.6666H44.3333C44.702 42.6666 45 42.3686 45 42C45 41.6313 44.702 41.3333 44.3333 41.3333H41.4333C40.8827 39.782 39.4047 38.6666 37.6667 38.6666C35.9287 38.6666 34.4507 39.782 33.9 41.3333H26.1C25.5493 39.782 24.0713 38.6666 22.3333 38.6666C20.5953 38.6666 19.1173 39.782 18.5667 41.3333H17C16.4387 41.3333 15.8987 41.092 15.5173 40.6713C15.1327 40.2453 14.952 39.6973 15.01 39.1273C15.1113 38.1213 16.0407 37.334 17.1253 37.334H17.6527C17.662 37.334 17.6693 37.334 17.6787 37.334H43.6747C45.5087 37.3333 47 35.842 47 34.0086V18.6666H14.7867ZM9.66667 17.3333C8.93133 17.3333 8.33333 16.7353 8.33333 16C8.33333 15.2646 8.93133 14.6666 9.66667 14.6666C10.402 14.6666 11 15.2646 11 16C11 16.7353 10.402 17.3333 9.66667 17.3333ZM37.6667 40C39.1373 40 40.3333 41.196 40.3333 42.6666C40.3333 44.1373 39.1373 45.3333 37.6667 45.3333C36.196 45.3333 35 44.1373 35 42.6666C35 41.196 36.196 40 37.6667 40ZM22.3333 40C23.804 40 25 41.196 25 42.6666C25 44.1373 23.804 45.3333 22.3333 45.3333C20.8627 45.3333 19.6667 44.1373 19.6667 42.6666C19.6667 41.196 20.8627 40 22.3333 40ZM45.6667 34.0086C45.6667 35.1066 44.7733 36 43.6753 36H18.214L15.034 20H45.6667V34.0086Z" fill="white"/>
<path d="M18.3986 35.4232L14.0909 12.9272L24.5994 11.5565L28.9113 33.5949L18.3986 35.4232Z" stroke="white"/>
<circle cx="33" cy="33" r="3.5" stroke="white"/>
<circle cx="41" cy="32" r="3.5" stroke="white"/>
<rect x="32.7044" y="27.1951" width="15" height="5" transform="rotate(-50 32.7044 27.1951)" stroke="white"/>
<circle cx="49" cy="17" r="4" fill="#FF0000"/>
</svg>
