<svg width="64" height="60" viewBox="0 0 64 60" fill="none" xmlns="http://www.w3.org/2000/svg">
<rect width="64" height="60" fill="#551574"/>
<path d="M19.7867 18.3333L19.2313 15H17.238C16.9407 13.8533 15.906 13 14.6667 13C13.196 13 12 14.196 12 15.6667C12 17.1373 13.196 18.3333 14.6667 18.3333C15.906 18.3333 16.9407 17.48 17.2387 16.3333H18.1013L18.4347 18.3333H18.4093L21.8567 35.6773C20.2133 35.8027 18.8447 37.068 18.6833 38.66C18.5887 39.5967 18.8967 40.5347 19.5287 41.232C20.1613 41.9313 21.0627 42.3333 22 42.3333H23.3333C23.3333 44.5393 25.1273 46.3333 27.3333 46.3333C29.5393 46.3333 31.3333 44.5393 31.3333 42.3333H38.6667C38.6667 44.5393 40.4607 46.3333 42.6667 46.3333C44.8727 46.3333 46.6667 44.5393 46.6667 42.3333H49.3333C49.702 42.3333 50 42.0353 50 41.6667C50 41.298 49.702 41 49.3333 41H46.4333C45.8827 39.4487 44.4047 38.3333 42.6667 38.3333C40.9287 38.3333 39.4507 39.4487 38.9 41H31.1C30.5493 39.4487 29.0713 38.3333 27.3333 38.3333C25.5953 38.3333 24.1173 39.4487 23.5667 41H22C21.4387 41 20.8987 40.7587 20.5173 40.338C20.1327 39.912 19.952 39.364 20.01 38.794C20.1113 37.788 21.0407 37.0007 22.1253 37.0007H22.6527C22.662 37.0007 22.6693 37.0007 22.6787 37.0007H48.6747C50.5087 37 52 35.5087 52 33.6753V18.3333H19.7867ZM14.6667 17C13.9313 17 13.3333 16.402 13.3333 15.6667C13.3333 14.9313 13.9313 14.3333 14.6667 14.3333C15.402 14.3333 16 14.9313 16 15.6667C16 16.402 15.402 17 14.6667 17ZM42.6667 39.6667C44.1373 39.6667 45.3333 40.8627 45.3333 42.3333C45.3333 43.804 44.1373 45 42.6667 45C41.196 45 40 43.804 40 42.3333C40 40.8627 41.196 39.6667 42.6667 39.6667ZM27.3333 39.6667C28.804 39.6667 30 40.8627 30 42.3333C30 43.804 28.804 45 27.3333 45C25.8627 45 24.6667 43.804 24.6667 42.3333C24.6667 40.8627 25.8627 39.6667 27.3333 39.6667ZM50.6667 33.6753C50.6667 34.7733 49.7733 35.6667 48.6753 35.6667H23.214L20.034 19.6667H50.6667V33.6753Z" fill="white"/>
</svg>
