<svg width="64" height="60" viewBox="0 0 64 60" fill="none" xmlns="http://www.w3.org/2000/svg">
<rect width="64" height="60" fill="#551574"/>
<path d="M44.8753 18.1247C41.5685 14.818 37.1738 13 32.5 13C27.8262 13 23.4315 14.818 20.1247 18.1247C16.818 21.4315 15 25.8262 15 30.5C15 35.1738 16.818 39.5685 20.1247 42.8753C23.4315 46.182 27.8262 48 32.5 48C37.1738 48 41.5685 46.182 44.8753 42.8753C48.182 39.5685 50 35.1738 50 30.5C50 25.8262 48.182 21.4315 44.8753 18.1247ZM32.5 46.0675C23.9182 46.0675 16.9325 39.0818 16.9325 30.5C16.9325 21.9182 23.9182 14.9325 32.5 14.9325C41.0818 14.9325 48.0675 21.9182 48.0675 30.5C48.0675 39.0818 41.0818 46.0675 32.5 46.0675Z" fill="white"/>
<path d="M32.5 27.5439C35.0123 27.5439 37.0522 25.4969 37.0522 22.9918C37.0522 20.4867 35.0123 18.4325 32.5 18.4325C29.9878 18.4325 27.9479 20.4795 27.9479 22.9846C27.9479 25.4898 29.9878 27.5439 32.5 27.5439ZM32.5 20.365C33.9458 20.365 35.1197 21.5388 35.1197 22.9846C35.1197 24.4305 33.9458 25.6043 32.5 25.6043C31.0542 25.6043 29.8804 24.4305 29.8804 22.9846C29.8804 21.5388 31.0542 20.365 32.5 20.365Z" fill="white"/>
<path d="M39.3998 33.0767C37.8037 30.729 35.4847 29.5338 32.5 29.5338C29.5154 29.5338 27.1964 30.7219 25.6002 33.0767C24.4121 34.8231 23.6534 37.2066 23.3528 40.1411C23.2955 40.6708 23.682 41.1503 24.2117 41.2004C24.7413 41.2577 25.2209 40.8712 25.271 40.3415C25.8794 34.4509 28.3129 31.4663 32.5 31.4663C36.6872 31.4663 39.1207 34.4509 39.7291 40.3415C39.7792 40.8354 40.2015 41.2076 40.6882 41.2076C40.724 41.2076 40.7526 41.2076 40.7884 41.2004C41.318 41.1432 41.7045 40.6708 41.6473 40.1411C41.3467 37.1994 40.588 34.8231 39.3998 33.0767Z" fill="white"/>
</svg>
