<svg version="1.1" id="Layer_1" xmlns="http://www.w3.org/2000/svg" xmlns:xlink="http://www.w3.org/1999/xlink" x="0px" y="0px"
	 width="100%" viewBox="0 0 704 352" enable-background="new 0 0 704 352" xml:space="preserve">
<path fill="#000000" opacity="1.000000" stroke="none" 
	d="
M354.119934,306.106201 
	C327.397675,303.840546 301.663757,299.308411 277.914612,287.216492 
	C265.751953,281.023895 254.534241,273.207367 243.123383,265.707794 
	C201.337585,238.244858 158.029587,213.495148 112.204750,193.281433 
	C99.148636,187.522293 85.624786,182.768860 73.370514,175.208466 
	C64.850655,169.952057 59.082146,163.101746 57.110760,153.029602 
	C56.352139,149.153687 57.684799,147.067825 60.881107,146.143661 
	C76.716438,141.565170 92.635864,138.059921 109.400703,138.702637 
	C121.761261,139.176483 133.962830,139.974335 145.858124,143.385941 
	C162.280441,148.095932 176.399826,157.119537 189.808762,167.398987 
	C205.468811,179.404221 221.773834,190.211487 240.954666,195.965103 
	C255.550461,200.343353 270.386047,200.556961 285.378418,199.263062 
	C289.909485,198.872025 294.481476,198.264923 299.844238,199.293335 
	C297.790833,201.999191 295.350586,202.260254 293.338745,202.759476 
	C266.339813,209.459091 240.243668,207.892365 214.775330,195.574295 
	C199.891129,188.375381 186.282272,179.069717 171.604614,171.571213 
	C152.760910,161.944366 132.955688,157.875656 111.931328,159.308578 
	C109.979958,159.441574 107.981789,159.488968 106.107880,161.349609 
	C116.254265,165.180786 126.164772,168.815125 135.994064,172.657272 
	C155.251953,180.184891 172.973557,190.849716 191.435562,200.003967 
	C205.613190,207.033844 220.243500,212.957611 235.399490,217.463089 
	C251.180389,222.154312 267.450623,221.949982 283.740662,221.925949 
	C298.851471,221.903656 312.352509,217.084183 325.219635,209.844345 
	C334.967804,204.359436 340.103302,194.798721 345.655670,185.745773 
	C352.983521,173.798050 353.508606,160.962509 351.394958,147.268295 
	C348.352020,127.553383 335.883362,114.701469 321.758331,102.743332 
	C296.808441,81.620926 267.122681,69.431747 236.946426,58.250355 
	C220.307251,52.084923 203.317337,46.996716 186.012817,43.087173 
	C172.711288,40.082012 159.184738,38.685261 145.516129,38.891678 
	C143.464539,38.922661 141.226944,39.247398 139.353745,37.092590 
	C142.386765,34.666660 145.681488,33.890438 149.151154,33.828281 
	C165.281464,33.539341 181.478363,32.948544 197.415100,35.881618 
	C213.842651,38.905029 230.217590,42.293240 246.251709,47.129265 
	C265.122070,52.820728 284.211029,57.580925 303.861359,59.725693 
	C313.089355,60.732891 322.043610,57.971382 331.178345,57.643833 
	C332.121552,57.610012 333.121948,56.926640 334.285583,58.750130 
	C327.147491,63.546452 318.774841,64.606499 310.795685,66.398743 
	C302.457458,68.271645 294.020050,66.607605 285.407471,66.057228 
	C292.285187,69.891380 299.170990,73.711159 306.038940,77.562721 
	C319.886047,85.328178 333.424438,93.734077 344.224091,105.440109 
	C357.460602,119.787506 369.196259,135.309921 373.652039,155.003860 
	C373.762024,155.490173 373.968079,155.956253 374.060791,156.444778 
	C375.090637,161.871857 373.019653,168.706497 380.315857,171.362595 
	C385.582336,173.279785 390.838562,175.058243 396.520386,175.908585 
	C414.552917,178.607391 430.489197,172.982468 446.047760,164.890259 
	C467.672852,153.642792 490.669434,152.202316 514.055603,156.947784 
	C529.368469,160.055054 543.068481,167.445648 555.849792,176.350372 
	C570.608032,186.632446 585.315002,196.935989 601.087891,205.697586 
	C622.360657,217.514313 644.991760,219.909164 668.621765,216.864746 
	C668.752380,216.847900 668.906189,217.010635 669.317200,217.237427 
	C670.099792,219.446899 668.418518,220.319000 666.774536,221.069305 
	C651.557678,228.013962 635.894409,229.761444 619.267273,226.919144 
	C595.409424,222.840820 574.825195,211.881805 554.724060,199.221436 
	C539.809631,189.827850 523.261719,184.944534 505.815430,181.838242 
	C484.881653,178.110977 466.289581,183.204880 448.446136,193.107666 
	C438.014740,198.896866 427.754333,204.958069 416.596771,209.605453 
	C422.416229,208.128525 428.309296,206.889923 434.038605,205.120987 
	C443.562958,202.180328 453.276642,200.171478 463.123077,198.888611 
	C476.051453,197.204208 489.042725,196.903198 501.813293,199.964218 
	C519.812683,204.278549 536.691589,210.950470 549.833069,224.763718 
	C550.839417,225.821533 552.176514,226.663589 552.025269,228.983994 
	C549.070923,228.421829 546.989990,226.548599 544.798950,224.985001 
	C525.827209,211.446304 504.702698,205.735779 481.616608,208.593063 
	C469.441620,210.099915 458.480225,215.622375 447.905884,221.661072 
	C435.597382,228.690155 423.018677,235.114182 409.417816,239.278381 
	C405.507202,240.475693 401.461517,241.232040 397.475220,242.817383 
	C403.676636,243.056381 409.311829,246.011383 415.702087,245.206131 
	C428.651825,243.574326 441.042603,239.878876 453.156433,235.337860 
	C465.153229,230.840714 477.440857,231.233276 489.856110,231.579605 
	C516.282288,232.316788 538.055359,243.957779 557.844238,260.291534 
	C572.882446,272.704132 588.123901,284.726349 605.797852,293.393738 
	C622.580994,301.624268 639.984924,303.668518 658.209045,300.442413 
	C661.096313,299.931274 664.054016,299.128357 667.204529,301.531372 
	C662.546936,306.567474 656.399231,308.494019 650.531616,310.103455 
	C622.943604,317.670593 598.601379,308.831543 575.555481,294.340729 
	C560.739624,285.024841 545.508667,276.808472 528.144348,273.005798 
	C517.888489,270.759857 507.614960,268.691803 497.161652,268.380005 
	C477.999359,267.808319 459.978210,272.902527 442.799438,281.030151 
	C427.780518,288.135864 412.845978,295.448700 396.782104,299.930511 
	C383.006256,303.773865 368.930664,305.931030 354.119934,306.106201 
z"/>
<path fill="#000000" opacity="1.000000" stroke="none" 
	d="
M124.880875,73.935272 
	C153.189880,77.422546 179.474976,86.044075 205.028244,97.514824 
	C233.075012,110.104897 259.324615,125.581894 283.830841,144.082062 
	C285.119843,145.055130 286.692810,145.840378 287.129089,147.654221 
	C286.187836,149.482315 284.787781,149.088837 283.285614,148.575211 
	C262.900146,141.605240 242.374588,135.068298 221.636169,129.235367 
	C200.908493,123.405464 180.089096,117.973640 158.911407,113.898247 
	C144.754364,111.173897 130.554962,108.913368 116.305237,106.766769 
	C103.847801,104.890175 91.367661,103.188950 78.902374,101.376991 
	C77.138283,101.120560 74.923279,101.253929 74.259117,99.150711 
	C73.655380,97.238831 75.534561,96.174683 76.681213,95.123055 
	C82.684021,89.617645 87.851006,83.761650 88.351028,74.991905 
	C88.517639,72.069725 91.057289,71.677536 93.625175,71.726128 
	C103.936005,71.921234 114.253159,71.958427 124.880875,73.935272 
M136.588303,99.953125 
	C141.205734,99.626701 146.103500,100.871964 150.637909,97.753731 
	C149.888824,96.741135 149.442093,96.063324 148.922958,95.446449 
	C138.558319,83.130417 125.034248,80.872963 110.086449,83.379478 
	C106.698524,83.947586 103.728645,85.611382 102.080925,88.753006 
	C100.696671,91.392311 100.477791,94.039246 104.345039,94.830780 
	C114.707253,96.951668 125.045288,99.237671 136.588303,99.953125 
z"/>
<path fill="#000000" opacity="1.000000" stroke="none" 
	d="
M638.179932,180.318787 
	C624.149658,188.058762 609.960938,190.966660 595.034241,184.410553 
	C587.807983,181.236633 578.694824,171.046265 577.077332,164.317902 
	C588.135132,168.909714 597.494507,175.700363 608.950745,178.222870 
	C620.566589,180.780518 631.284790,176.696213 642.544495,175.658585 
	C642.520630,179.097504 639.886963,178.977798 638.179932,180.318787 
z"/>
</svg>