<svg width="64" height="60" viewBox="0 0 64 60" fill="none" xmlns="http://www.w3.org/2000/svg">
<rect width="64" height="60" fill="white"/>
<path d="M45.163 42.911L37.2701 34.5845C38.8261 32.6173 39.762 30.1033 39.762 27.3575C39.762 21.0933 34.8853 16 28.8866 16C22.888 16 18 21.0993 18 27.3635C18 33.6276 22.8767 38.721 28.8753 38.721C31.4236 38.721 33.769 37.7998 35.6295 36.2605L43.5506 44.6107C44.0129 45.0981 44.7007 45.0981 45.163 44.6107C45.6253 44.1234 45.6253 43.3983 45.163 42.911ZM20.3115 27.3635C20.3115 22.4425 24.1565 18.4427 28.8753 18.4427C33.5942 18.4427 37.4392 22.4425 37.4392 27.3635C37.4392 32.2845 33.5942 36.2842 28.8753 36.2842C24.1565 36.2842 20.3115 32.2785 20.3115 27.3635Z" fill="#72428A"/>
</svg>
