<svg width="64" height="60" viewBox="0 0 64 60" fill="none" xmlns="http://www.w3.org/2000/svg">
<rect width="64" height="60" fill="#551574"/>
<path d="M50 35.6927H46.3542V27.1641C46.3542 22.7706 43.0071 19.0406 38.4015 17.7777C38.3146 15.1307 35.798 13 32.7149 13H32.6183C29.5692 13 27.073 15.0838 26.9344 17.6901C22.1563 18.8602 18.6456 22.6644 18.6456 27.1641V35.6927H15V43.7804H26.7757C27.216 46.1687 29.6149 48 32.4999 48C35.385 48 37.7839 46.1687 38.2241 43.7804H49.9999V35.6927H50ZM32.6183 14.5824H32.7149C34.6443 14.5824 36.2476 15.8123 36.5305 17.4127C36.0183 17.3515 35.4954 17.3191 34.964 17.3191H30.0357C29.6217 17.3191 29.2129 17.3388 28.8102 17.3763C29.111 15.7938 30.7037 14.5824 32.6183 14.5824ZM32.4999 46.4175C30.6279 46.4175 29.0557 45.2904 28.6412 43.7803H36.3587C35.9442 45.2904 34.372 46.4175 32.4999 46.4175ZM48.1693 42.1979H16.8307V37.275H20.4765V27.164C20.4765 22.608 24.7648 18.9014 30.0358 18.9014H34.9642C40.2352 18.9014 44.5235 22.608 44.5235 27.164V37.275H48.1693V42.1979V42.1979Z" fill="white"/>
</svg>
