<svg width="60" height="60" viewBox="0 0 60 60" fill="none" xmlns="http://www.w3.org/2000/svg">
<rect width="60" height="60" fill="#551574"/>
<path d="M47 34.6927H43.3542V26.1641C43.3542 21.7706 40.0071 18.0406 35.4015 16.7777C35.3146 14.1307 32.798 12 29.7149 12H29.6183C26.5692 12 24.073 14.0838 23.9344 16.6901C19.1563 17.8602 15.6456 21.6644 15.6456 26.1641V34.6927H12V42.7804H23.7757C24.216 45.1687 26.6149 47 29.4999 47C32.385 47 34.7839 45.1687 35.2241 42.7804H46.9999L47 34.6927ZM29.6183 13.5824H29.7149C31.6443 13.5824 33.2476 14.8123 33.5305 16.4127C33.0183 16.3515 32.4954 16.3191 31.964 16.3191H27.0357C26.6217 16.3191 26.2129 16.3388 25.8102 16.3763C26.111 14.7938 27.7037 13.5824 29.6183 13.5824ZM29.4999 45.4175C27.6279 45.4175 26.0557 44.2904 25.6412 42.7803H33.3587C32.9442 44.2904 31.372 45.4175 29.4999 45.4175ZM45.1693 41.1979H13.8307V36.275H17.4765V26.164C17.4765 21.608 21.7648 17.9014 27.0358 17.9014H31.9642C37.2352 17.9014 41.5235 21.608 41.5235 26.164V36.275H45.1693V41.1979Z" fill="white"/>
<circle cx="41" cy="18" r="4" fill="#FF0000"/>
</svg>
