<svg width="64" height="60" viewBox="0 0 64 60" fill="none" xmlns="http://www.w3.org/2000/svg">
<rect width="64" height="60" fill="#551574"/>
<path d="M28.6667 40.8869C28.6658 40.0047 28.9559 39.1468 29.492 38.4463C30.0282 37.7457 30.7804 37.2416 31.6322 37.0119C32.484 36.7823 33.3878 36.8401 34.2034 37.1763C35.019 37.5125 35.7009 38.1083 36.1435 38.8715C39.1915 37.5269 40.3333 35.4167 40.3333 31.4063V27.0313C40.3333 21.2096 37.0506 17.1875 31.9479 17.1875C26.8452 17.1875 23.5625 21.211 23.5625 27.0313V32.1354C23.5621 32.4254 23.4468 32.7034 23.2417 32.9084C23.0367 33.1134 22.7587 33.2288 22.4687 33.2292H21.0104C19.9474 33.228 18.9282 32.8053 18.1764 32.0538C17.4246 31.3022 17.0015 30.2832 17 29.2202V27.7619C17.0012 26.6985 17.424 25.6789 18.1758 24.9268C18.9276 24.1748 19.947 23.7515 21.0104 23.75H21.7075C22.8115 18.5423 26.59 15 31.9479 15C37.3058 15 41.0829 18.5423 42.1869 23.75H42.884C43.9471 23.7515 44.9663 24.1746 45.718 24.9263C46.4698 25.6781 46.8928 26.6973 46.8944 27.7604V29.2188C46.8932 30.282 46.4703 31.3014 45.7185 32.0533C44.9666 32.8051 43.9472 33.228 42.884 33.2292H42.4333C42.3771 34.9564 41.7975 36.6259 40.7715 38.0165C39.7455 39.4071 38.3213 40.4533 36.6875 41.0167C36.6703 42.0803 36.2313 43.0935 35.467 43.8335C34.7027 44.5734 33.6758 44.9794 32.6122 44.9622C31.5486 44.945 30.5353 44.5059 29.7954 43.7417C29.0555 42.9774 28.6495 41.9505 28.6667 40.8869V40.8869ZM30.8542 40.8869C30.8542 41.2474 30.9611 41.5999 31.1614 41.8996C31.3617 42.1994 31.6464 42.4331 31.9795 42.571C32.3126 42.709 32.6791 42.7451 33.0327 42.6748C33.3863 42.6044 33.7111 42.4308 33.9661 42.1759C34.221 41.9209 34.3946 41.5961 34.465 41.2425C34.5353 40.8889 34.4992 40.5224 34.3612 40.1893C34.2233 39.8562 33.9896 39.5715 33.6898 39.3712C33.3901 39.1709 33.0376 39.064 32.6771 39.064C32.1937 39.0643 31.7303 39.2565 31.3885 39.5983C31.0467 39.9401 30.8546 40.4035 30.8542 40.8869V40.8869ZM42.5208 31.0431H42.884C43.3676 31.0431 43.8314 30.8511 44.1735 30.5093C44.5156 30.1675 44.7079 29.7038 44.7083 29.2202V27.7619C44.7083 27.2783 44.5163 26.8145 44.1745 26.4724C43.8327 26.1303 43.369 25.9379 42.8854 25.9375H42.5208V31.0431ZM19.1875 27.7619V29.2202C19.1883 29.7033 19.3806 30.1664 19.7224 30.5078C20.0641 30.8493 20.5273 31.0413 21.0104 31.0417H21.375V25.9375H21.0104C20.5268 25.9379 20.0632 26.1303 19.7213 26.4724C19.3795 26.8145 19.1875 27.2783 19.1875 27.7619V27.7619Z" fill="white"/>
</svg>
